<?xml version="1.0" encoding="utf-8"?>
<!-- Generator: Adobe Illustrator 25.4.1, SVG Export Plug-In . SVG Version: 6.00 Build 0)  -->
<svg version="1.1" id="Layer_1" xmlns="http://www.w3.org/2000/svg" xmlns:xlink="http://www.w3.org/1999/xlink" x="0px" y="0px"
	 viewBox="0 0 300 300" style="enable-background:new 0 0 300 300;" xml:space="preserve">
<style type="text/css">
	.st0{fill:url(#SVGID_1_);}
	.st1{fill:url(#SVGID_00000036246300787052471950000009798619643369683343_);}
	.st2{fill:#FFFFFF;}
</style>
<g>
	
		<radialGradient id="SVGID_1_" cx="-207.1168" cy="-146.593" r="103.4105" gradientTransform="matrix(0 -2.6779 -2.6353 0 -305.7534 -244.4708)" gradientUnits="userSpaceOnUse">
		<stop  offset="0" style="stop-color:#FFDD46"/>
		<stop  offset="0.1" style="stop-color:#FFDD46"/>
		<stop  offset="0.5" style="stop-color:#FF533A"/>
		<stop  offset="1" style="stop-color:#E734AF"/>
	</radialGradient>
	<path class="st0" d="M149.91,9.23c-61.72,0-79.77,0.06-83.27,0.34c-12.67,1-20.55,2.88-29.13,6.92
		c-6.62,3.11-11.84,6.71-16.99,11.75C11.14,37.44,5.45,48.77,3.4,62.23c-1,6.53-1.29,7.87-1.35,41.25c-0.02,11.13,0,25.77,0,45.41
		c0,58.3,0.07,75.34,0.36,78.65c1.02,11.65,2.96,18.98,7.05,27c7.82,15.35,22.76,26.87,40.36,31.17c6.09,1.48,12.82,2.3,21.46,2.69
		c3.66,0.15,40.97,0.26,78.31,0.26s74.67-0.04,78.24-0.21c10-0.45,15.81-1.18,22.24-2.75c17.71-4.32,32.38-15.67,40.36-31.23
		c4.01-7.82,6.05-15.43,6.97-26.48c0.2-2.41,0.28-40.79,0.28-79.13c0-38.34-0.09-76.65-0.29-79.06
		c-0.93-11.22-2.97-18.77-7.11-26.74c-3.4-6.53-7.17-11.4-12.65-16.39c-9.78-8.83-21.74-14.2-35.99-16.15
		c-6.91-0.94-8.28-1.22-43.62-1.28H149.91z"/>
	
		<radialGradient id="SVGID_00000110470071524275314950000004637645779778354562_" cx="444.5533" cy="138.6116" r="103.415" gradientTransform="matrix(0.2485 1.1737 5.1192 -0.969 -867.5446 -358.0927)" gradientUnits="userSpaceOnUse">
		<stop  offset="0" style="stop-color:#0072CB"/>
		<stop  offset="0.128" style="stop-color:#0072CB"/>
		<stop  offset="1" style="stop-color:#7800FF;stop-opacity:0"/>
	</radialGradient>
	<path style="fill:url(#SVGID_00000110470071524275314950000004637645779778354562_);" d="M149.91,9.24
		c-61.72,0-79.77,0.06-83.27,0.34c-12.67,1-20.55,2.88-29.13,6.92c-6.62,3.11-11.84,6.71-16.99,11.75
		c-9.38,9.2-15.06,20.53-17.12,33.99c-1,6.53-1.29,7.87-1.35,41.25c-0.02,11.13,0,25.77,0,45.41c0,58.3,0.07,75.34,0.36,78.65
		c1.02,11.65,2.96,18.98,7.05,27c7.82,15.35,22.76,26.87,40.36,31.17c6.09,1.48,12.82,2.3,21.46,2.69
		c3.66,0.15,40.97,0.26,78.31,0.26s74.67-0.04,78.24-0.21c10-0.45,15.81-1.18,22.24-2.75c17.71-4.32,32.38-15.67,40.36-31.23
		c4.01-7.82,6.05-15.43,6.97-26.48c0.2-2.41,0.28-40.79,0.28-79.13c0-38.34-0.09-76.65-0.29-79.06
		c-0.93-11.22-2.97-18.77-7.11-26.74c-3.4-6.53-7.17-11.4-12.65-16.39c-9.78-8.83-21.74-14.2-35.99-16.15
		c-6.91-0.94-8.28-1.22-43.62-1.28H149.91z"/>
	<path class="st2" d="M149.87,45.77c-29.64,0-33.36,0.12-45,0.62c-11.62,0.5-19.55,2.24-26.49,4.79
		c-7.18,2.64-13.27,6.16-19.33,11.9c-6.07,5.74-9.8,11.49-12.6,18.28c-2.71,6.56-4.55,14.06-5.07,25.04
		c-0.52,11.01-0.66,14.52-0.66,42.55s0.13,31.53,0.66,42.53c0.53,10.98,2.37,18.48,5.07,25.04c2.79,6.79,6.52,12.54,12.59,18.28
		c6.06,5.74,12.15,9.27,19.33,11.91c6.94,2.55,14.88,4.29,26.49,4.79c11.64,0.5,15.36,0.62,45,0.62c29.64,0,33.35-0.12,44.99-0.62
		c11.62-0.5,19.56-2.24,26.5-4.79c7.18-2.64,13.26-6.17,19.32-11.91c6.07-5.74,9.8-11.49,12.6-18.28
		c2.68-6.56,4.52-14.06,5.07-25.04c0.52-11.01,0.66-14.51,0.66-42.54s-0.14-31.54-0.66-42.54c-0.55-10.98-2.39-18.48-5.07-25.04
		c-2.8-6.79-6.53-12.54-12.6-18.28c-6.07-5.74-12.14-9.26-19.33-11.9c-6.96-2.55-14.89-4.29-26.51-4.79
		c-11.64-0.5-15.35-0.62-45-0.62H149.87z M140.08,64.37c2.91,0,6.15,0,9.79,0c29.14,0,32.6,0.1,44.1,0.59
		c10.64,0.46,16.42,2.14,20.26,3.55c5.09,1.87,8.72,4.11,12.54,7.72c3.82,3.61,6.18,7.05,8.17,11.87c1.49,3.63,3.27,9.09,3.76,19.15
		c0.52,10.88,0.64,14.14,0.64,41.68s-0.11,30.8-0.64,41.68c-0.49,10.06-2.26,15.52-3.76,19.15c-1.98,4.81-4.35,8.24-8.17,11.85
		c-3.82,3.61-7.45,5.85-12.54,7.72c-3.84,1.42-9.62,3.1-20.26,3.56c-11.51,0.49-14.96,0.6-44.1,0.6c-29.14,0-32.6-0.11-44.1-0.6
		c-10.64-0.46-16.42-2.15-20.27-3.56c-5.09-1.87-8.73-4.11-12.55-7.72c-3.82-3.61-6.18-7.04-8.17-11.86
		c-1.49-3.63-3.27-9.09-3.76-19.15c-0.52-10.88-0.63-14.14-0.63-41.7s0.1-30.8,0.63-41.68c0.49-10.06,2.26-15.52,3.76-19.16
		c1.98-4.81,4.35-8.25,8.17-11.87c3.82-3.61,7.46-5.85,12.55-7.72c3.85-1.42,9.63-3.1,20.27-3.56c10.07-0.43,13.97-0.56,34.31-0.58
		V64.37z M208.13,81.5c-7.23,0-13.1,5.54-13.1,12.38c0,6.84,5.87,12.38,13.1,12.38c7.23,0,13.1-5.55,13.1-12.38
		C221.23,87.04,215.36,81.49,208.13,81.5L208.13,81.5z M149.87,95.96c-30.95,0-56.05,23.72-56.05,52.99s25.1,52.98,56.05,52.98
		s56.04-23.71,56.04-52.98S180.82,95.96,149.87,95.96L149.87,95.96z M149.87,114.56c20.09,0,36.38,15.4,36.38,34.39
		c0,18.99-16.29,34.39-36.38,34.39c-20.09,0-36.38-15.4-36.38-34.39C113.49,129.96,129.78,114.56,149.87,114.56z"/>
</g>
</svg>
