<svg enable-background="new 0 0 203.8 87.6" height="207.289049" viewBox="0 0 203.8 87.6" width="482.418151" xmlns="http://www.w3.org/2000/svg"><path d="m72.4 53.6c0-.4.1-.9.1-1.3s-.1-.9-.1-1.3v-51h-72.3v51c-.1.4-.1.8-.1 1.3 0 .4 0 .9.1 1.3v.9h.1c1.1 18.5 16.8 33.1 36 33.1s34.9-14.6 36.1-33.1h.1z" fill="#fff"/><path d="m1.8 2.3h68.8v51.6h-68.8z" fill="#002e6e"/><path d="m36.2 85.3c19 0 34.4-15 34.4-33.5s-15.4-33.5-34.4-33.5-34.5 15-34.5 33.5c0 18.5 15.5 33.5 34.5 33.5z" fill="#8c3392"/><path d="m36 56 6.5 4.3-6.5 4" fill="#febe10"/><path d="m15.3 33.3 20.8 10.1 20.9-10.1-20.9 7z" fill="#febe10"/><path d="m15.3 29 20.8 10 20.9-10-20.9 7z" fill="#febe10"/><path d="m36.1 48.3-20.7-7.5v-3.7l20.7 7.4c21-7.3 21-7.4 21-7.4v3.7z" fill="#febe10"/><path d="m15.3 24.5 20.8 10.1 20.9-10.1-20.9 7z" fill="#febe10"/><path d="m15.3 20.2 20.8 10.1 20.9-10.1-20.9 7z" fill="#febe10"/><path d="m15.3 15.7 20.8 10.1 20.9-10.1-20.9 7.1z" fill="#febe10"/><path d="m15.3 12.8 20.8 6.4 20.9-6.4-20.9-7.1z" fill="#febe10"/><path d="m51.1 55.3.4-2 5.5-1.7 2.6.6 3.8 2.7-.2.5.9 2.3-2.1 2.4-2.8-3.9-2.3-1-1.4 1.3-1.3.5s.2.7-.4.9l-1.7-.7 2.9 4.3s-3.6-3.1-11.3 1.4c0 0-3.7 3-8.4 4.3 0 0-3.5.6-7.5 3.8-3.9 3.1-10.4 4.5-14.4 6.1 0 0 6.4-5.1 8.7-6 0 0 2.5-1.2 5.5-3.4 3.6-2.7 5.8-3.3 8.1-3.9 0 0 3.2-1 6.3-4 0 0 2.9-1.6 3.5-2.2 0 0 1-1.3 1.9-3.3l.3 1.1s1.8-2 1.3-3.3z" fill="#fff"/><path d="m20.4 55.3-.4-2-5.5-1.7-2.6.6-3.7 2.7.2.5-.9 2.3 2.2 2.4 2.8-3.9 2.3-1 1.4 1.3 1.3.5s-.2.7.4.9l1.7-.7-2.9 4.3s3.6-3.1 11.3 1.4c0 0 3.7 3 8.4 4.3 0 0 3.5.6 7.5 3.8 3.9 3.1 10.3 5.2 14.3 6.9 0 0-6.3-5.8-8.6-6.8 0 0-2.5-1.2-5.5-3.4-3.6-2.7-5.8-3.3-8.1-3.9 0 0-3.2-1-6.4-4 0 0-2.9-1.6-3.5-2.2 0 0-1-1.3-1.9-3.3l-.3 1.1s-1.8-2-1.3-3.3z" fill="#fff"/><path d="m66.3 68.3-43.5-22.1h-8.9l50.4 25.4c-.1.1 1.3-1.7 2-3.3z" fill="#fff"/><path d="m7.8 70.8 50.8-24.5h-8.9l-44 21.2s1.6 3.1 2.1 3.3z" fill="#fff"/><path d="m82.7 25.3h5.2v1h-.3c-.4 0-.7 0-.9.1-.1.1-.2.2-.3.4s-.1.6-.1 1.1v7.2c0 1.3.1 2.2.4 2.8s.7 1.1 1.3 1.6c.6.4 1.3.6 2 .6.8 0 1.5-.2 2.1-.7.7-.5 1.1-1 1.4-1.6s.4-1.6.4-2.9v-6.9c0-.5 0-.9-.1-1.1s-.2-.4-.4-.5-.4-.2-.8-.2h-.4v-1h4.5v1h-.3c-.5 0-.9.1-1 .3-.2.2-.3.7-.3 1.3v7.3c0 1.3-.2 2.4-.7 3.3-.4.9-1 1.6-1.9 2.1-.8.5-1.8.8-2.8.8s-2-.3-2.8-.8-1.5-1.2-1.9-2-.6-1.8-.6-3v-7.5c0-.5 0-.9-.1-1.1s-.2-.4-.3-.5c-.2-.1-.4-.1-.8-.1h-.5z" fill="#515254"/><path d="m98.3 27.8h4.2l6.1 10.2v-7.7c0-.5 0-.8-.1-1s-.2-.4-.4-.5-.4-.2-.8-.2h-.3v-.8h4.5v.8h-.2c-.4 0-.7 0-.8.1-.2.1-.3.3-.5.5-.1.2-.1.6-.1 1v11.1h-1.2l-7.4-12.2v9.7c0 .5 0 .9.1 1 0 .2.1.3.2.4s.3.2.4.3c.2.1.5.1 1 .1v.8h-4.5v-.8h.2c.5 0 .8 0 .9-.1.2-.1.3-.2.4-.5.1-.2.1-.6.1-1.1v-8.6c0-.5 0-.9 0-1-.1-.2-.2-.4-.3-.5-.2-.1-.5-.1-1-.1h-.3v-.9z" fill="#515254"/><path d="m112.9 27.8h5.1v.8h-.4c-.4 0-.6.1-.8.2s-.3.3-.4.4c-.1.2-.1.6-.1 1.1v8.8c0 .4 0 .7.1.9s.2.3.3.4.4.1.8.1h.4v.8h-5.1v-.8h.4c.4 0 .7 0 .8-.1.2-.1.3-.2.3-.4.1-.1.1-.5.1-.9v-8.9c0-.5 0-.9-.1-1-.1-.2-.2-.3-.3-.4s-.4-.1-.8-.1h-.4v-.9z" fill="#515254"/><path d="m118.8 27.8h4.9v.8h-.4c-.4 0-.6 0-.7 0s-.2.1-.3.2-.1.2-.1.3c0 .2.1.4.2.8l3.6 9.4 3.6-9.4c.1-.3.2-.6.2-.8s-.1-.3-.2-.4-.4-.1-.8-.1h-.5v-.8h4.2v.8c-.4 0-.6 0-.8.1s-.3.2-.4.3c-.1.2-.3.5-.5.9l-4.6 11.4h-1.4l-4.6-11.4c-.2-.4-.3-.6-.3-.7-.1-.1-.2-.2-.3-.3s-.2-.1-.4-.2c-.2 0-.4-.1-.7-.1v-.8z" fill="#515254"/><path d="m133.7 27.8h11l1.4 3.6-.9.3c-.2-.6-.4-1.1-.7-1.4s-.6-.6-.9-.9c-.3-.2-.7-.4-1.1-.5s-1-.1-2-.1h-3.3v5h1.6c.6 0 1.1-.1 1.4-.3s.5-.5.6-.8c.1-.2.1-.6.1-1.2v-.2h.9v6h-.8v-.5c0-.5 0-.8-.1-1s-.2-.4-.4-.6-.4-.3-.6-.4-.6-.1-1.1-.1h-1.6v4.4c0 .5 0 .7.1.8 0 .1.1.2.2.2s.3.1.8.1h2c1.1 0 2-.1 2.7-.4.6-.3 1.2-.7 1.7-1.2.4-.4.8-1.1 1.1-1.8l.9.3-1.5 4.2h-11.4v-.8h.4c.5 0 .7 0 .9-.1s.3-.2.4-.4c.1-.1.1-.4.1-.8v-9.4c0-.4 0-.7-.1-.8s-.2-.2-.4-.3c-.1 0-.5-.1-1.2-.1v-.8z" fill="#515254"/><path d="m148 27.8h7c1.3 0 2.3.1 3 .4s1.2.7 1.6 1.2.5 1.1.5 1.8-.2 1.3-.5 1.9c-.4.6-.9 1-1.5 1.3-.7.3-1.5.5-2.7.5l3.5 4.4c.3.4.5.6.6.7.2.2.5.3.7.5.3.1.5.2.8.2h.2v.8h-3.1l-4.9-6.5h-1.7v4.2.8c.1.2.2.4.3.5s.5.1.9.1h.3v.8h-5v-.8h.5c.3 0 .6 0 .7-.1s.2-.1.3-.2.2-.3.2-.4 0-.4 0-1v-8.9c0-.4 0-.7-.1-.8-.1-.2-.2-.3-.3-.4-.2-.1-.4-.1-.7-.1h-.6zm3.5 1v5.1h2.8c.9 0 1.6-.1 2-.2.5-.2 1-.4 1.3-.9.3-.4.5-.9.5-1.6 0-.5-.1-1-.3-1.4s-.5-.6-.9-.8-1-.3-1.8-.3h-3.6z" fill="#515254"/><path d="m171.3 27.8h.7l1 4.2-.9.3c-.6-1.2-1.3-2.1-2.2-2.8-.8-.6-1.6-.8-2.5-.8-.6 0-1.1.1-1.5.3s-.8.5-1 .8-.3.6-.3 1c0 .3.1.6.3.9s.4.5.8.7 1 .4 1.8.7l2.5.7c.3.1.8.3 1.4.5.6.3 1.1.5 1.4.8s.6.7.8 1.1.3.9.3 1.4c0 1.1-.5 2-1.4 2.8s-2.2 1.2-3.7 1.2c-.8 0-1.5-.1-2.1-.3s-1.3-.6-2-1.2l-.5 1.3h-.7l-.9-4.8.9-.2c.3.9.8 1.6 1.3 2.3.5.6 1.1 1.1 1.8 1.4s1.3.5 2 .5c.9 0 1.7-.3 2.4-.8.6-.5.9-1 .9-1.7 0-.6-.2-1.1-.6-1.4-.4-.4-1.2-.7-2.3-1l-2.4-.7c-1.4-.4-2.3-.9-2.9-1.5s-.8-1.3-.8-2.1c0-.6.2-1.2.5-1.7.4-.5.9-1 1.6-1.3.8-.4 1.6-.5 2.5-.5.7 0 1.5.1 2.1.4.5.2.9.4 1.3.8z" fill="#515254"/><path d="m175.2 27.8h5.1v.8h-.3c-.4 0-.6.1-.8.2s-.3.3-.4.4c-.1.2-.1.6-.1 1.1v8.8c0 .4 0 .7.1.9s.2.3.3.4.4.1.8.1h.4v.8h-5.1v-.8h.4c.4 0 .6 0 .8-.1.1-.1.3-.2.3-.4.1-.1.1-.5.1-.9v-8.9c0-.5 0-.9-.1-1-.1-.2-.2-.3-.3-.4-.2-.1-.4-.1-.8-.1h-.4z" fill="#515254"/><path d="m182.4 27.3h.7l.1.4h8.3l.1-.4h.7l1.4 4-.9.3c-.4-1.1-.9-1.8-1.5-2.2s-1.3-.6-2.2-.6c-.4 0-.6 0-.6 0-.1 0-.1.1-.2.2v.7 9.4c0 .5 0 .8.1.9 0 .2.1.3.2.4s.2.1.4.2c.2 0 .5.1 1.1.1v.8h-5.2v-.8c.6 0 .9 0 1-.1.2-.1.4-.2.5-.4s.1-.5.1-1v-9.6c0-.3 0-.5 0-.5 0-.1-.1-.1-.2-.2-.1 0-.2-.1-.5-.1-.7 0-1.3.1-1.7.3s-.8.5-1.2.9-.7 1-.9 1.7l-.9-.3z" fill="#515254"/><path d="m194.3 27.8h5.1v.8h-.4c-.4 0-.6.1-.8.2s-.3.3-.4.4c-.1.2-.1.6-.1 1.1v8.8c0 .4 0 .7.1.9s.2.3.3.4.4.1.8.1h.4v.8h-5.1v-.8h.4c.4 0 .6 0 .8-.1.1-.1.3-.2.3-.4.1-.1.1-.5.1-.9v-8.9c0-.5 0-.9-.1-1-.1-.2-.2-.3-.3-.4-.2-.1-.4-.1-.8-.1h-.4v-.9z" fill="#515254"/><path d="m84.1 45.4h.7l.1.6h8.3l.1-.6h.7l1.4 4.7-.9.4c-.4-1.3-.9-2.1-1.5-2.6s-1.3-.8-2.2-.8c-.4 0-.6 0-.7.1-.1 0-.1.1-.1.2s-.1.3-.1.8v11c0 .5 0 .9.1 1.1 0 .2.1.3.2.4s.2.2.4.2c.2.1.5.1 1.1.1v.9h-5.2v-.9c.6 0 .9 0 1-.1.2-.1.4-.2.5-.4s.1-.6.1-1.2v-11.3c0-.3 0-.6-.1-.6 0-.1-.1-.1-.2-.2-.1 0-.2-.1-.5-.1-.7 0-1.2.1-1.7.3-.4.2-.8.6-1.2 1.1s-.7 1.2-.9 2l-.9-.4z" fill="#515254"/><path d="m96.1 48.4h11l1.3 3.6-.9.3c-.2-.6-.4-1.1-.7-1.4s-.5-.6-.9-.9c-.4-.2-.7-.4-1.1-.5s-1-.1-2-.1h-3.3v4.9h1.6c.6 0 1.1-.1 1.4-.3s.5-.5.7-.8c.1-.2.1-.6.1-1.2v-.2h.9v6h-.9v-.5c0-.5 0-.8-.1-1s-.2-.4-.4-.6-.4-.3-.6-.4-.6-.1-1.1-.1h-1.6v4.4c0 .5 0 .7.1.8 0 .1.1.2.2.2.1.1.4.1.8.1h2c1.1 0 2-.1 2.6-.4s1.2-.7 1.7-1.3c.4-.4.7-1 1.1-1.8l.9.3-1.5 4.2h-11.3v-.8h.4c.5 0 .7 0 .8-.1.2-.1.3-.2.4-.4.1-.1.1-.4.1-.8v-9.4c0-.4 0-.7-.1-.8s-.2-.2-.4-.3c-.1 0-.5-.1-1.2-.1z" fill="#515254"/><path d="m110.5 48.4h5.2v.8h-.4c-.4 0-.7.1-.9.1-.2.1-.3.3-.4.5s-.1.4-.1.8v5.2l5.1-5.4c.3-.3.4-.5.5-.6 0-.1.1-.2.1-.3s-.1-.2-.2-.3-.4-.1-.7-.1h-.3v-.8h4.8v.8c-.4 0-.7 0-1 .1s-.6.2-.7.3c-.4.3-.7.5-.8.7l-3.6 3.7 4.1 5.5c.4.5.7.8.9 1s.4.3.7.4c.2.1.6.1 1.1.1v.8h-5.9v-.8h.3.7c.1 0 .2-.1.3-.2s.1-.2.1-.2c0-.2-.2-.5-.7-1.2l-3.1-4.1-1.7 1.7v2.6c0 .4 0 .7.1.9s.2.3.4.3c.1.1.5.1 1.2.1v.8h-5.2v-.8h.4c.4 0 .7 0 .8-.1.2-.1.3-.2.3-.4.1-.2.1-.5.1-1v-9c0-.5-.1-.8-.1-1-.1-.2-.2-.3-.3-.4s-.5-.1-.9-.1h-.3v-.4z" fill="#515254"/><path d="m124.6 48.4h4.2l6.1 10.1v-7.7c0-.5 0-.8-.1-1s-.2-.4-.4-.5-.4-.1-.8-.1h-.3v-.8h4.5v.8h-.2c-.4 0-.7 0-.8.1-.2.1-.3.3-.4.5s-.2.6-.2 1v11.1h-1.2l-7.4-12.2v9.7c0 .5 0 .9.1 1 0 .2.1.3.2.4s.2.2.4.3c.2 0 .5.1 1 .1v.8h-4.6v-.8h.3c.5 0 .8-.1 1-.1.2-.1.3-.2.4-.5.1-.2.2-.6.2-1.1v-8.6c0-.5 0-.9-.1-1-.1-.2-.2-.4-.3-.5-.2-.1-.5-.1-1-.1h-.4v-.9z" fill="#515254"/><path d="m146.5 48.2c1.2 0 2.4.3 3.4.9 1.1.6 1.9 1.5 2.5 2.5s.9 2.2.9 3.5c0 2.1-.7 3.8-1.9 5.1-1.3 1.3-2.9 2-4.9 2-2.2 0-4-.8-5.3-2.4-1.1-1.3-1.6-2.8-1.6-4.6 0-1.3.3-2.5.9-3.6s1.4-1.9 2.5-2.5c1-.6 2.2-.9 3.5-.9m0 1c-1 0-1.9.2-2.6.7s-1.3 1.1-1.8 2c-.4.9-.7 2-.7 3.3s.2 2.3.6 3.2 1 1.5 1.7 2 1.5.7 2.5.7c.9 0 1.7-.2 2.4-.7.7-.4 1.3-1.2 1.7-2.1.4-1 .7-2.1.7-3.2 0-1.2-.2-2.3-.7-3.3-.4-.9-.9-1.5-1.5-1.9-.5-.5-1.3-.7-2.3-.7z" fill="#515254"/><path d="m155.2 48.4h5.2v.8h-.5c-.4 0-.6 0-.8.1s-.3.2-.3.3c-.1.1-.1.4-.1.7v9.4c0 .4 0 .7.1.8 0 .1.1.2.3.2.1 0 .3.1.8.1h.7c.9 0 1.6-.1 2.2-.4.6-.2 1.1-.6 1.6-1 .4-.5.9-1.2 1.3-2.1l.9.3-1.5 4.2h-9.8v-.8h.4c.4 0 .7 0 .8-.1s.2-.2.3-.4.1-.4.1-.9v-9.2c0-.5 0-.8-.1-1s-.2-.3-.3-.4-.4-.1-.9-.1h-.4z" fill="#515254"/><path d="m174.3 48.2c1.2 0 2.4.3 3.4.9 1.1.6 1.9 1.5 2.5 2.5s.9 2.2.9 3.5c0 2.1-.6 3.8-1.9 5.1s-2.9 2-5 2c-2.2 0-4-.8-5.3-2.4-1.1-1.3-1.6-2.8-1.6-4.6 0-1.3.3-2.5.9-3.6s1.5-1.9 2.6-2.5c1-.6 2.2-.9 3.5-.9m0 1c-1 0-1.9.2-2.6.7s-1.3 1.1-1.7 2-.7 2-.7 3.3.2 2.3.6 3.2 1 1.5 1.7 2 1.5.7 2.4.7 1.7-.2 2.4-.7c.7-.4 1.3-1.2 1.7-2.1.5-1 .7-2.1.7-3.2 0-1.2-.2-2.3-.7-3.3-.4-.9-.9-1.5-1.5-1.9-.5-.5-1.3-.7-2.3-.7z" fill="#515254"/><path d="m193.7 48.4h.7l1.1 4.2-.9.3c-.6-1.3-1.3-2.3-2-2.8-.8-.6-1.6-.8-2.6-.8-1.4 0-2.5.6-3.5 1.7-.9 1.1-1.4 2.5-1.4 4.1 0 1.1.2 2.2.7 3.1.5 1 1.1 1.7 1.9 2.2s1.6.7 2.5.7c.6 0 1.1-.1 1.6-.3s.9-.5 1.3-.7c.2-.2.4-.5.5-.7.1-.3.1-.6.1-1.1v-.6c0-.5-.1-.9-.2-1.1s-.3-.4-.5-.4c-.2-.1-.6-.1-1.4-.1v-1.1h5.5v.8h-.4c-.4 0-.6 0-.8.1-.1.1-.2.2-.3.4-.1.1-.1.5-.1.9v4.7h-1l-.5-1.2c-.6.4-1.1.7-1.7.9-.9.3-1.8.5-2.7.5-1.8 0-3.4-.7-4.7-2s-1.9-3-1.9-5 .7-3.6 2-5c1.3-1.3 2.9-2 4.7-2 .4 0 .9 0 1.4.1s.9.2 1.2.4c.3.1.6.3 1 .6z" fill="#515254"/><path d="m198.7 48.4h5.1v.8h-.4c-.4 0-.6.1-.8.2s-.3.2-.4.4-.1.6-.1 1.1v8.8c0 .4 0 .7.1.9s.2.3.4.4c.1.1.4.1.8.1h.4v.8h-5.1v-.8h.4c.4 0 .7-.1.8-.1.2-.1.3-.2.3-.4.1-.2.1-.5.1-.9v-9c0-.5 0-.8-.1-1s-.2-.3-.3-.4-.4-.1-.8-.1h-.4z" fill="#515254"/><path d="m82.7 66.1h4.3l4 12.6 3.9-12.6h4.1v.9h-.3c-.4 0-.7 0-.8.1s-.3.2-.3.4c-.1.2-.1.6-.1 1v10.6c0 .7 0 1.1.1 1.3s.2.4.3.5c.2.1.4.2.9.2h.3v1h-5.1v-1h.4c.3 0 .6 0 .7-.1s.3-.2.4-.3.2-.3.2-.5c0-.3 0-.6 0-.7v-11.7l-4.4 14.3h-1l-4.6-14.1v11.3c0 .6 0 1 .1 1.2s.2.4.4.5.5.2 1 .2h.3v1h-4.8v-1h.3c.5 0 .8-.1 1-.2s.3-.3.4-.5.1-.6.1-1.2v-10.6c0-.6 0-1-.1-1.1-.1-.2-.2-.3-.4-.4s-.4-.1-.9-.1h-.5v-1z" fill="#515254"/><path d="m106 68.5h1.6l4.2 11.3c.2.6.4 1 .6 1.1.2.2.5.3.8.3h.2v.8h-4.8v-.8h.5c.3 0 .5 0 .6-.1.2-.1.3-.3.3-.5 0-.1-.1-.5-.3-1l-.9-2.6h-4.8l-1.1 2.9c-.1.3-.2.5-.2.6s0 .2.1.3.2.2.3.2c.1.1.3.1.6.1h.4v.8h-4v-.8c.4 0 .6 0 .8-.1s.3-.2.4-.4.3-.5.5-1.1zm-1.7 7.6h4.2l-2.1-5.8z" fill="#515254"/><path d="m114.5 68.5h7c1.3 0 2.3.1 3 .4s1.2.7 1.6 1.2.5 1.1.5 1.8-.2 1.3-.5 1.9c-.3.5-.9 1-1.5 1.3-.7.3-1.5.5-2.6.5l3.5 4.4c.3.4.5.6.6.7.2.2.5.4.7.4.2.1.5.2.8.2h.3v.8h-3.1l-4.9-6.5h-1.9v4.2c0 .4 0 .7.1.8.1.2.2.4.3.5.2.1.5.1.9.1h.4v.8h-5.2v-.8h.5c.3 0 .6 0 .7-.1s.2-.1.3-.2.2-.3.2-.4 0-.4 0-1v-8.9c0-.4 0-.7-.1-.8-.1-.2-.2-.3-.3-.4s-.4-.1-.7-.1h-.6zm3.5 1.1v5.1h2.8c.9 0 1.6-.1 2-.2.5-.2 1-.4 1.3-.8s.5-.9.5-1.6c0-.5-.1-1-.3-1.4s-.5-.7-.9-.8c-.4-.2-1-.3-1.7-.3z" fill="#515254"/><path d="m133.8 68.5h1.6l4.2 11.3c.2.6.4 1 .6 1.1.2.2.5.3.9.3h.2v.8h-4.8v-.8h.5c.3 0 .5 0 .6-.1.2-.1.3-.3.3-.5 0-.1-.1-.5-.3-1l-.9-2.6h-4.9l-1.1 2.9c-.1.3-.2.5-.2.6s0 .2.1.3.2.2.3.2c.1.1.3.1.6.1h.4v.8h-4v-.8c.4 0 .7 0 .8-.1.2-.1.3-.2.4-.4s.3-.5.5-1.1zm-1.7 7.6h4.2l-2.1-5.8z" fill="#515254"/><g fill="#8c3392"><path d="m124.5 5.4c.5-.8 0-.5 0-.5-.2.4-.3.1-.3.1-.6-.5.6-2.4.6-2.4.2-.4-.2 0-.2 0-1.4 2.4-.8 2.9-.8 2.9.3.7.7-.1.7-.1z"/><path d="m203.4 15.4s-.6-7.6-1-10c0 0-.1-.7.2-.2l.5.7s.1-.7-.2-1.3c0 0-.5-1-.5-1.3 0 0-.3-1.1-.6-.6 0 0-.6 1-.3 1.4l.9 7.9s.7 4.1.6 5.3c0-.1.5-.7.4-1.9z"/><path d="m199.2 4.9c-.4.7-3.5 3.1-4.2 3.7.5-.3 1.7-.9 1.7-.9 1.1-.6 2.7-2.5 2.7-2.5.6.5.7.1.7.1.4-.5-.4-.9-.4-.9s.2-.5 0-1.5-1.2.1-1.2.1c-.7.7-.3 1.3-.3 1.3zm0-1.7c.4-.1.3.9.3.9l-.6-.4c-.3-.4.3-.5.3-.5z"/><path d="m194.9 8.7s.1 0 .2-.1c-.1 0-.2.1-.2.1z"/><path d="m199.3 8.3c.3-.6-.1-.2-.1-.2l-.9 1.7c-.4.8.2 1.2.2 1.2.8 0 .7-1 .7-1-.2.4-.5.2-.5.2-.3-.1 0-.6 0-.6z"/><path d="m200 12.8c-1.2-.9-2.1 1.2-2.1 1.2-.6 1.7 1 1.8 1 1.8.6-.1 1.6 0 1.6 0 .7.4.2 1.1.2 1.1-.8 1.3-2.8 2.7-2.8 2.7-1.4 1.2-2.8.7-2.8.7-2.2-1.1-.8-3.6-.8-3.6.8 0 1.3-.6 1.3-.6.9-2 .1-3.2.1-3.2-.5-.8-.7.9-.7.9 0 .3.4.6.4.6.2.6-1.2.7-1.2.7-1-.1-.8-1.4-.8-1.4.1-.8-.6-.2-.6-.2-1.8 1.5-2.5 1.4-2.5 1.4 0-.6-1-1.4-1-1.4-1.4-1-2.3 1.2-2.3 1.2-.6 1.7.8 1.9.8 1.9.9.4 2.2-.1 2.2-.1v.4c-1.4 1.9-3.6 3-3.6 3-2.6 1.3-3.4-.9-3.4-.9-.6-1.5.9-2.8.9-2.8.8-.7.8-2 .8-2.5 0-.1 0-.1 0-.3 0-.7-.7-1.5-.7-1.5-.6-.6-.2-.7-.2-.7.6.2.4-.2.4-.2l-1.3-1.1c-.4-.5-.4-.1-.4-.1v1.3l.3.4c.1.5 1.3 2.4 1.3 2.4.3.6-.2 1-.2 1-1.1 1.3-5 3.5-5 3.5-1.7 1.2-6.6 3.1-6.6 3.1.4 0 4.8-.9 4.8-.9.4-.1 1.2-.5 1.2-.5 1-.6 4.4-2.6 4.4-2.6-1.2 3.6 1.4 4.4 1.4 4.4 2.8.5 5.7-3.2 5.7-3.2.6-.6.5-2 .5-2l.2-.3c.3 0 1.3-.8 1.3-.8.3-.4.9-.6.9-.6 0 1.6 1.1 1.7 1.1 1.7-.3.5-.4 2.1-.4 2.1-.1 2.9 2.2 2.9 2.2 2.9 2.4.1 5.2-3.6 5.2-3.6.5-.6.6-2.4.6-2.4.1-1.9-1.4-2.9-1.4-2.9zm-.1 1.7h-.9s-.4-.2.1-.5c0 0 .4-.3 1 .2-.1.1.2.2-.2.3zm-12 .9s-.3-.2.2-.4c0 0 .5-.3 1 .4z"/><path d="m176.5 14.8c1.2.2 2.1-1.5 2.1-1.5.2.4.9.8.9.8 1.5.6 1.8-1 1.8-1 .4-1.5-.5-1.9-.5-1.9-.6 1-.2 1.3-.2 1.3.3.4-.2.3-.2.3-1.6 0-1.2-.9-1.2-.9.2-.6-.2-.3-.2-.3-.7 1.4-1.3 1.7-1.3 1.7-1.9 1-1.9-.8-1.9-.8.3-.8-.1-.5-.1-.5-1.8 1.8-4.2 2-4.2 2-2.6.3-2.6-1.5-2.6-1.5.1-.9-.4-.3-.4-.3-1.2 2-2.9 1.9-2.9 1.9-1.8-.2-1.7-2-1.7-2 .4-1.8-1.2-1.5-1.2-1.5-2.6.9-3.1 3.6-3.1 3.6-.8 2.4 2.8 2.3 2.8 2.3.8.1.8.8.8.8-.8.9-3.5 2.1-3.5 2.1-3.4 1.6-5.3-.4-5.3-.4-2.4-1.6-.4-5.9-.4-5.9.3-.9-.3 0-.3 0-.6.8-1 3.1-1 3.1-1 5.1 3.9 5.3 3.9 5.3 3 .1 6.7-2.9 6.7-2.9 1.6-2.4-.2-3.4-.2-3.4-.9-.1-2.2-.5-2.2-.5-1.6-.7 1.5-2.4 1.5-2.4.9-.7 1.2.5 1.2.5-.2 1.5.9 2.4.9 2.4 1.9 1.4 3.6-1.1 3.6-1.1.3-.4.4-.2.4-.2.6 1.8 2.5 1.6 2.5 1.6 1.9.1 4.3-1.7 4.3-1.7-.1 1.1 1.2 1 1.2 1z"/><path d="m193.7 9.5s-.4.6-.5 1.2c0 0 .7.4 1.1.8 0 0 .6-.2.8-1.2-.1.1-.6-.5-1.4-.8z"/><path d="m186.9 10.9s.7.4 1.1.8c0 0 .7-.2.7-1.2 0 0-.4-.6-1.3-.9 0 0-.4.6-.5 1.3z"/><path d="m191.7 19.5s.5-.8.6-1c0 0-.6-.6-1.3-.8l-.7 1.2s.9.4 1.1.7v.2l-.6 1s1.2.7 1.3.9c0 0 .7-.9.7-1.2l-1-.7z"/><path d="m195 18.5s-.1.3.4-.1c0 0 1.2-.8 2.3-1.2 0 0 .6-1-.1-.6l-2.5 1.3z"/><path d="m190.1 8.1c0-.1.3-.3.3-.3h1.7l-2 1.4c2.1-.2 2.8-1.7 2.8-1.7.8-.8.2-.9.2-.9l-1.9-.2c-.7-.1-.8.2-.8.2l-.4 1c-.4.5.1.5.1.5z"/><path d="m193.4 3.9c.8 0 .8 1.4.8 1.4 0 .6.3.4.3.4.2-.2.3-1 .3-1 .1-1.3.3-1.6.3-1.6.4-.5.9.6.9.6.3-.5-.2-1.2-.2-1.2-.9-1.2-1 1-1 1-.1 1.1-.3 1-.3 1-.3-1.7-1.3-1.7-1.3-1.7-.8-.3-.6.6-.6.6-.2.6.8.5.8.5z"/><path d="m167.8 3.9c.8 0 .9 1.4.9 1.4 0 .6.3.4.3.4.2-.2.3-1 .3-1 .1-1.3.3-1.6.3-1.6.4-.5.9.6.9.6.3-.5-.2-1.2-.2-1.2-1-1.2-1.1 1-1.1 1-.1 1.1-.3 1-.3 1-.3-1.7-1.4-1.7-1.4-1.7-.8-.3-.6.6-.6.6-.1.5.9.5.9.5z"/><path d="m189.9 3.3s.1.1.4-.5c0 0 .3-.7-.6-.2 0 0-5.1 2.5-5.3 2.7 0 0-.3.4-.2.8 0-.1 4.6-2.5 5.7-2.8z"/><path d="m186.2 6.4s-2.1 2.3-1 2.9c0 0 .9 0 .7-.9 0 0-.2-.2-.2.2 0 0-.6.4-.5-.3.1 0 1-1.5 1-1.9z"/><path d="m179.8 3.9s.2 0 .4-.1c0 0 .6-.2 1.3 0 0 0 .2 0-.2.3l-1.7 1.1s-.1.2.4 0c0 0 .7-.3 1.1-.3 0 0 .5-.1 1.2-1.1 0 0 1.3-1.2.2-1.2 0 0-2.1-.5-2.5.1.1 0-.6 1-.2 1.2z"/><path d="m173.8 9.4c1.3-.1 1.4-1.9 1.4-1.9.1-.8-.4-.1-.4-.1-.2.6-.4.7-.4.7-1.4-.2-.4-2.3-.4-2.3.7-1.2 1.2-3.1 1.2-3.1.1-.3-.2.1-.2.1-1 1.4-2 4.6-2 4.6-.2 1.8.8 2 .8 2z"/><path d="m177.8 10.2s.4.1 1.5-1.4c0 0 .9-1.6-.4-1.4 0 0-.8.5-.6.8 0 0 .1 0 .2-.1 0 0 .7-.1.2.7z"/><path d="m161.3 5.3s.4.1 1.5-1.4c0 0 .9-1.6-.4-1.4 0 0-.8.5-.6.8 0 0 .2-.1.3-.2 0 0 .9-.4.1.9z"/><path d="m179.4 15.2s-2.6 1.1-3.2 1.4c0 0-.5.6-.2.8 0 0 2.7-1.3 3.3-1.5 0 0 .2 0 .4-.3-.1 0 .1-.8-.3-.4z"/><path d="m173.8 16.6c-1.3 1.5-.8 2.5-.8 2.5.5.7.9-.1.9-.1.5-.8 0-.5 0-.5-.2.4-.4.2-.4.2-.4-.4.3-1.9.3-1.9.3-.5 0-.2 0-.2z"/><path d="m166.9 7.6h1.7l-1.6 1.1s-.2.4.5.1c0 0 .8-.4 1.1-.3l.8-.9s1.2-1.4.1-1.4h-2.1s-.8.7-.8 1.4c-.1 0 0 .2.3 0z"/><path d="m160.6 8.7s.8.6.9.8c0 0 .5-.4.7-1 0 0-.1-.4.4 0l1.1.7.6-1.1s-.8-.8-1.3-.9c0 0-.3-.1-.8.9l-1-.7s-.2-.2-.5.5c0-.1-.6.5-.1.8z"/><path d="m167.2 18.5s.5-.4.7-1c0 0-.1-.4.4 0l1.1.7.6-1.1s-.8-.8-1.3-.9c0 0-.3-.1-.8 1l-1-.7s-.2-.2-.5.5c0 0-.6.6-.1.9-.1-.1.8.5.9.6z"/><path d="m164.7 19.4s-.5 1.2-.8 1l-1-.7s-.2-.2-.5.5c0 0-.6.6-.1.9 0 0 .8.6 1 .8 0 0 .5-.4.7-1 0 0-.1-.4.4 0l1.1.7.6-1.1c-.1-.2-.9-1-1.4-1.1z"/><path d="m146.3 18.8s-.5 1.2-.8 1l-1-.7s-.2-.2-.5.5c0 0-.6.6-.1.9 0 0 .8.6 1 .8 0 0 .5-.4.7-.9 0 0-.1-.4.4 0l1.1.7.6-1.1c-.1-.2-.9-1-1.4-1.2z"/><path d="m148 10.6s.9.6 1 .7c0 0 .5-.4.6-1 0 0-.1-.4.4-.1l1.1.6.5-1.1s-.8-.8-1.3-.8c0 0-.4 1.2-.7 1l-1.1-.6s-.2-.2-.5.5c0-.1-.6.6 0 .8z"/><path d="m167.4 20.7-.3.5s-.1.5.4.1c0 0 2.1-1.1 3.1-1.5 0 0 .1-.2.1-.6 0 0-1.9.7-3.3 1.5z"/><path d="m149.3 20.5-.3.5s-.2.5.4.1c0 0 2.1-1.1 3.1-1.5 0 0 .1-.2.1-.6 0 0-1.9.7-3.3 1.5z"/><path d="m155.4 4s.4-.3 1-.2l.8.1-1.8 1.5s1.2-.5 1.8-.6c0 0 2.4-2.2 1-2.3h-1.9s-.5-.1-.7.4c0 0-1 1.4-.2 1.1z"/><path d="m133.8 3.9s.3-.3.9-.2l.7.1-1.6 1.5s1.1-.5 1.7-.6c0 0 2.2-2.2.9-2.3h-1.7s-.4-.1-.7.4c-.1-.1-1 1.4-.2 1.1z"/><path d="m157.4 7.6c-.6 0-1.8 4.1-1.8 4.1-.4 1.4.3 2.6.3 2.6 1 1.2 1.8-1.5 1.8-1.5.2-1-.4-.4-.4-.4-.3 1-.8.8-.8.8-1.3-.7.5-4.3.5-4.3.5-1 .4-1.3.4-1.3z"/><path d="m157.9 16.2s-.1-.7-.8-.2c0 0-.7.6-.1.7 0 0 .6-.2.2.5l-1.1 1.5.5-.3c-.1 0 1.4-1.5 1.3-2.2z"/><path d="m149.1 4.1s.5.3.9.2c0 0 .4.5.5 1.7 0 0 .7-.6.6-2.5 0 0 .3-1.1.8.5 0 0 .4-1-.2-1.5 0 0-.8-.6-.8 1.1 0 0 0 .9-.1 1.3 0 0-.5-2.1-1.5-1.8-.3 0-.7.8-.2 1z"/><path d="m140.9 18.1s-.9-.6-.9 1.1c0 0 0 .9-.1 1.3 0 0-.6-2.1-1.7-1.8 0 0-.5.7 0 1 0 0 .5.3.9.2 0 0 .4.5.5 1.7 0 0 .7-.6.6-2.5 0 0 .3-1.1.9.5 0 0 .4-1-.2-1.5z"/><path d="m150.3 16.2s1.4-.4 1-2.8c0 0-.5-.9-.7-.4 0 0-.3.9 0 1.3 0 0 .5.6-.6.7 0 0-1.2.2-1.4-.8 0 0 .2-1.3-.6-.5 0 0-1.4 2.6-3.3 1.5 0 0-1.8-.9-3.3-2.9l-5.3-5s-.2-.4.2-.6c0 0 6.6-3.4 9.4-3.2 0 0 1.1 0 .2 1.1 0 0-1.4 2.1-1.2 2.8 0 0 .1.1.5-.8 0 0 .8-1.9 1.3-2.4 0 0 1.3-2.4-1.2-2 0 0-4.2.6-9.1 3.3 0 0-.4.2-.7 1.2l-.2 1.1s0 .5.6 1.1c0 0 4.2 4.5 4.3 5.6 0 0-.1 1.3-1.7.8 0 0-.7-.2-.8-1.2 0 0 0-1.1-.5-.5 0 0-1.3 1.2-1.9 1.5 0 0-.2-.1-.4-.4 0 0-1-1.9-2.1-.9 0 0-2 1.9-.3 3.1 0 0 1.3.5 2.2 0 0 0 .4.1-.1.7 0 0-2 2.4-4.1 2.9 0 0-3.6.6-2.9-3.2l.5-1.5s.1-.7-.2-.2c0 0-1.9 3.3-.1 5.6 0 0 1.5 1.5 3.5.4 0 0 4.4-2 4.2-4.9 0 0 1.3-1 1.8-1.6 0 0 .2 1.6 1.4 1.7 0 0 2.8-.1 1.7-3.2l-.5-1.1 2.6 2.6s1.3 2.1 3.3 1.5c0 0 1.4-.4 1.8-1.6 0 0 .3-.6.4.1.2 0 .6 1.9 2.3 1.1zm-17.5-.6c.8-.9 1.5.1 1.5.1-1.1.2-1.5-.1-1.5-.1z"/><path d="m145.8 9c-1.6 2.7-.9 3.3-.9 3.3.3.7.8-.1.8-.1.5-.9 0-.6 0-.6-.1.4-.4.3-.4.3-.6-.6.7-2.9.7-2.9.2-.5-.2 0-.2 0z"/><path d="m130.9 5.4c.5-.8 0-.5 0-.5-.2.4-.3.1-.3.1-.6-.5.6-2.4.6-2.4.2-.4-.2 0-.2 0-1.4 2.4-.8 2.9-.8 2.9.3.7.7-.1.7-.1z"/><path d="m141.7 9.3-3-.9c-.7-.2-.4.1-.4.1.2 0 .6.5.6.5l2.5.7c.8.3.9-.6.9-.6.7-.9-1.3-1.1-1.3-1.1-.9-.3-.5-.6-.5-.6.6-.5 1.1-.1 1.1-.1.3.3.4-.1.4-.1.4-.5-.3-.5-.3-.5-1.8 0-1.8 1-1.8 1-.1.9 2 1 2 1 .4.6-.2.6-.2.6z"/><path d="m117.5 9.7-2.7-1.4c-.6-.3-.4 0-.4 0 .2 0 .5.6.5.6l2.3 1.2c.7.4 1-.4 1-.4.9-.8-1.1-1.4-1.1-1.4-.8-.5-.4-.7-.4-.7.6-.3 1 .1 1 .1.2.4.4 0 .4 0 .4-.4-.2-.6-.2-.6-1.7-.3-1.9.6-1.9.6-.2.8 1.7 1.4 1.7 1.4.4.7-.2.6-.2.6z"/><path d="m134.5 10.9c-.6.9-.4 1.1-.4 1.1.3.1.9.6.9.6.3.3.6-.3.6-.3.5-.7.1-1 .1-1l-1-.6c-.1-.1-.2.2-.2.2z"/><path d="m132.1 8.2.7.5s.4.1-.1.6c0 0-2.3 2.1-2.6 2.3 0 0 .5-.1 1-.5 0 0 1.7-.9 2.2-2 0 0 .3.1.4.3 0 0 .3 0 .4-.6 0 0-.1-.3-.4-.5 0 0-.1-.1 0-.5 0 0 0-2.1-.7-1.5-.1 0-1.8 1.3-.9 1.9zm.7-1.1c.3-.1.3.9.3.9l-.7-.4c-.2-.3.4-.5.4-.5z"/><path d="m126.6 16s2-.8 1.9-2.1c0 0 .3-2.6-.7-8.5 0 0-.2-.5.2-.1l.6.6s.4.2-.2-1.1c0 0-.9-2.8-1.2-2.4 0 0-.4 1.1-.4 1.4 0 0 .1.1.1.7l1 8.6s.5.9-2.2 1.7c0 0-.3-2.3-2.3-1.7 0 0-1 .3-1.1 1.8 0 0-.3 1.4 1 1.6 0 0 1.3.1 1.9-.1 0 0 .3.5-.2.9 0 0-2.5 2.6-4.7 2.9 0 0-1.9.6-2.2-1.7 0 0-.1-1.8.7-2.7 0 0 .4-1.3-.1-.5 0 0-2 3.1-.5 5.6 0 0 1.2 1.9 3.8.4 0 0 3.4-2 3.7-3.4 0 0 .3-1.1.3-1.4-.1-.2 0-.3.6-.5zm-3.5-1c.7-1 1.5.1 1.5.1-.5.1-1.5-.1-1.5-.1z"/><path d="m117.5 14.8s2-1.3 2.9-1.8c0 0 .1-.3 0-.6 0 0-1.8.9-3.1 1.9l-.2.5s-.1.5.4 0z"/><path d="m117.5 20.7-.7-.5c-.4-.3-.5 0-.5 0l-.3.6c-.2.5-.5.1-.5.1l-.7-.5c-.3-.3-.4 0-.4 0l-.4.8c-.2.3.1.5.1.5.3.1.7.5.7.5.3.3.4.1.4.1.3-.3.5-.8.5-.8.2-.4 1 .4 1 .4.4.3.5.1.5.1l.4-.6c.2-.6-.1-.7-.1-.7z"/><path d="m125.2 9s.1 0 .2.3c0 0 .3-.1.4-.3.2-.3-.2-.6-.2-.6.3-.6.1-1.5.1-1.5-.1-1.4-1.4.3-1.4.3-.8.8.5 1.5.5 1.5s.3 0 0 .4c0 0-2.7 2.1-3.1 2.5.1-.2 2.4-1.3 3.5-2.6zm-.5-1.5s-.3-.3.3-.5c0 0 .3-.2.3.9z"/><path d="m115.8 16.5s.5 0 .8.4c0 0-.4.7-2 1.4 0 0-3.5 2.1-5.9 1.7 0 0-4.4-.9-2.1-6.5 0 0 .5-.8.1-.9 0 0-.3 0-.6 1 0 0-2 4.8.3 6.8 0 0 1.9 2 4.9.8 0 0 3.6-1.5 5-2.6 0 0 2.1-3.2-.8-3.6 0 0 1.8-1.3.8-3.6 0 0-1-1.4-1.7-1.8 0 0-1.7-1.3-1.8-1.8 0 0 .3-.1.9.2 0 0 .5 0 0-.4l-1.8-1.2s-.4-.2.2-.5c0 0 4.2-1.9 7.5-2.6 0 0 2.1-.4 1.5.7 0 0-.9 1.5-1.2 2.7 0 0-.2.8.3 0 0 0 1.1-2.5 1.5-3.1 0 0 .6-1.2-.4-1.6 0 0-.7-.2-1.9.1 0 0-3.1.5-7.5 2.6 0 0-1.3 1.7-.5 2.8 0 0 .8.9 1.2 1.4 0 0 1.4 1.5 2 1.9 0 0 2.2 1.6 1.7 2.4 0 0-.7.9-2.8 1.7 0 0-.2 0-.3.9 0 0 0 .4.8.5z"/><path d="m109.6 3.6c.3.1.9.6.9.6.3.3.6-.3.6-.3.5-.7.1-1 .1-1l-1-.6c-.2-.1-.3.2-.3.2-.6.8-.3 1.1-.3 1.1z"/><path d="m109.1 11.7s.3-.2.9-.2l.7.1-1.6 1.4s1.1-.4 1.7-.5c0 0 2.2-2 .9-2.1h-1.7s-.4-.1-.7.4c-.1-.1-1 1.2-.2.9z"/><path d="m110.6 16.4s.1-1.5-.7-1c0 0-.7.6-.5 1 0 0 .1.1.2-.1 0 0 .6-.4.3.3 0 0-.5 1.3-1.3 2.1.1.1 1.6-1 2-2.3z"/><path d="m105.8 9.1s-.4 1.1-.9.9c0 0-.7-.9-.3-2.8 0 0 1.1-2.6 1.2-3.2l1.3-.5s.6-.6.2-1.1c0 0-9.4 4.6-10.3 5.3 0 0-.3.3-.3.9 0 0 .1.2.4-.1 0 0 4.7-2.8 8.2-4.2 0 0 .1.2-.3.8 0 0-1.4 2.6-1.1 4.8 0 0 .1 2.2 1.2 1.4 0 0 .9-.6.9-2.1.1-.1-.1-.4-.2-.1z"/><path d="m100.2 11.2s0 .3.4-.1c0 0 1.5-1.8.7-2.4 0 0-.4-.5-.8.3 0 0-.3.4.1.4 0 0 .6-.4.5.2-.1 0-.4 1-.9 1.6z"/><path d="m97.9 3.9s.6.2 1 .1c0 0 .5.4.7 1.6 0 0 .7-.7.3-2.6 0 0 .2-1.2.9.4 0 0 .3-1-.4-1.5 0 0-.9-.5-.8 1.2 0 0 .1 1 0 1.3 0 0-.8-2.1-1.9-1.7 0 .3-.3 1.1.2 1.2z"/><path d="m97.6 12.9c-.6 1-.1 1.5-.1 1.5.7.5 1-.5 1-.5.2-.7-.1-.3-.1-.3-.1.4-.5.3-.5.3-.6-.5.5-2.3.5-2.3-.2-.2-.8 1.3-.8 1.3z"/><path d="m95.1 20.4c-.1.4-.4.3-.4.3-.5-.5.5-2.3.5-2.3-.2-.1-.8 1.4-.8 1.4-.5 1-.1 1.5-.1 1.5.6.5.9-.5.9-.5.1-.7-.1-.4-.1-.4z"/><path d="m103.4 13.3c-1.1-1.2-2.2 1-2.2 1-.4 0-.5.3-.5.3-.1.5-.5 1.2-.5 1.2-1.8 2-3.5.5-3.5.5-1.1-.8-1.1-7.8-1.1-7.8-.1-2.4-.7-5.6-.7-5.6 0-.7-.3-.4-.3-.4l-.5 1.1c.2.1.4 1.4.4 1.4.6 1.9.5 7.3.9 10.3s2.9 2.9 2.9 2.9c1.7 0 2.5-2.4 2.5-2.4.6.6 2.2 1.1 2.2 1.1.5.1.9-.1.9-.1l.4-1.1v-.1c-.1-.8-.9-2.3-.9-2.3zm-1.9 1.5c.3-.6.9-.4.9-.4.6.3.6 1 .6 1z"/><path d="m102.3 18.6s-.1-.2-.2.1c0 0-.2 1-1.4 1.5 0 0-2 1-2.8 1.2 0 0 1.2-.2 1.6-.1 0 0 1.7-.8 2.2-1.1 0 0 .4-.5.5-.8 0 0 .2-.1.8.3 0 0 .4.2.5-.2 0 0 .2-.5-.3-1.4-.1 0-.5-.4-.9.5zm.6.4-.4-.2c.5-.4.4.2.4.2z"/><path d="m94 13.6-1-1.8h.4s.1-.2-.4-.6c0 0-.8-1.4-1-.8 0 0-.3 1.3 0 1.5 0 0 .1.1.3.6 0 0 1.6 2.2 1 2.9 0 0-.9 1-1.6 1.4 0 0-6.2 3.9-8.6 4.7 0 0 2.6-.7 3.6-.7 0 0 1.2-.1 1.7-.5l4.5-3c-.1 0 1.8-1.7 1.1-3.7z"/><path d="m93.5 7.1s.2-.1.3-.4c0 0 .2-.7-.2-.3l-4.4 2.4s-.2.5-.2.7z"/><path d="m91.3 5c.1-.5-.1-.4-.2-.1s-.3.1-.3.1c-.7-.8.5-2.5.5-2.5.2-.6-.3 0-.3 0-1.3 2.1-.5 3.3-.5 3.3.7.3.8-.8.8-.8z"/><path d="m87.2 13.8s.6 3.3.3 4.2c0 0 1-1.6.5-5.1l-.9-7.7s.5.5.7.8c0 0 .2-.4-.2-1.1 0 0-.9-3.1-1.2-2.7 0 0-.7 1.1-.3 1.4z"/></g></svg>